# xmcd
#
# Track frame offsets:
#	150
#	14445
#	31125
#	48007
#	58970
#	85140
#	98202
#	109917
#	126410
#	152457
#	166312
#
# Disc length: 2513 seconds
#
# Revision: 2
# Processed by: cddbd v1.5.2PL0 Copyright (c) Steve Scherf et al.
# Submitted via: audiograbber 1.83.01
#
DISCID=8509cf0b
DTITLE=Angela Brown, Albert C.Humprey and Christian Christl - Breath Taking Boogi
DTITLE=e Shaking
DYEAR=1989
DGENRE=Blues
TTITLE0=Leave my Baby for Me
TTITLE1=Kitchen Man
TTITLE2=Let´s Move Together
TTITLE3=Kansas City Blues
TTITLE4=St. James Infirmary
TTITLE5=Close My Eyes
TTITLE6=Lulu´s Back in Town
TTITLE7=I´ve Got a Good Thing
TTITLE8=You Don´t Love Me no More
TTITLE9=Breath Taking Boogie Shaking
TTITLE10=Wonderful World
EXTD=Angela Brown, Chicago, voice\nAlbert C.Humprey, Los Angeles, voice\nChrist
EXTD=ian Chritstl, Freisin
EXTT0=
EXTT1=
EXTT2=
EXTT3=
EXTT4=
EXTT5=
EXTT6=
EXTT7=
EXTT8=
EXTT9=
EXTT10=
PLAYORDER=
